PathFileType	4	(X/Y/Z)	pose_F01_0-75.trc
DataRate	CameraRate	NumFrames	NumMarkers	Units	OrigDataRate	OrigDataStartFrame	OrigNumFrames
30	30	7	21	m	30	32	75
Frame#	Time	CHip			RHip			RKnee			RAnkle			RBigToe			RSmallToe			RHeel			LHip			LKnee			LAnkle			LBigToe			LSmallToe			LHeel			Neck			Nose			RShoulder			RElbow			RWrist			LShoulder			LElbow			LWrist			
		X1	Y1	Z1	X2	Y2	Z2	X3	Y3	Z3	X4	Y4	Z4	X5	Y5	Z5	X6	Y6	Z6	X7	Y7	Z7	X8	Y8	Z8	X9	Y9	Z9	X10	Y10	Z10	X11	Y11	Z11	X12	Y12	Z12	X13	Y13	Z13	X14	Y14	Z14	X15	Y15	Z15	X16	Y16	Z16	X17	Y17	Z17	X18	Y18	Z18	X19	Y19	Z19	X20	Y20	Z20	X21	Y21	Z21	
32	1.0666666666666667	-0.23585597272414432	1.901256092530708	-0.5373431604505411	-0.23819969153001552	1.8992863916097213	-0.4824837878006658	-0.22664862806435182	1.727761083704996	-0.46024476787540586	-0.23455922389159267	1.5588132455028836	-0.3847974807442254	-0.19422048651015525	1.5127925201753352	-0.4714127173570439	-0.20003893019134722	1.5107354775267077	-0.4275092355385939	-0.24574252959936146	1.5514610199716428	-0.3577987255627602	-0.23180154017203886	1.9024305142044136	-0.5887890944652409	-0.2419141058233339	1.7478914137054922	-0.5956377631335803	-0.26690685605892384	1.6036451059614059	-0.5325954333873095	-0.24219228217519856	1.5672794241035979	-0.6144402952763599	-0.25392084441310314	1.5825109412160703	-0.6106453890688052	-0.268488166407435	1.5970509919208387	-0.5169139709364766	-0.2253913933614073	2.073970230457695	-0.5632530903321271	-0.18646615422652232	2.1312537165685543	-0.6416520033225244	-0.22774852146446165	2.0750127375216474	-0.4852580236924764	-0.1830613766996448	2.0213230974269685	-0.45535643844000867	-0.8618327236566723	2.049090527952923	0.42210665620360605	-0.22435204516745358	2.07476095435488	-0.6418987453983133	-0.21309605090460815	1.9977933268463006	-0.700561982069543	-0.19368666197200268	2.0654587863807294	-0.7591842401062981
33	1.1	-0.23728404258338745	1.8919218553047386	-0.5393093598041916	-0.24149200923299327	1.890166392452144	-0.4821741387285696	-0.22782400197093036	1.7224195182809445	-0.47172023586217976	-0.2347495493197303	1.5561054077115002	-0.384559111103516	-0.19399707411154402	1.511547932233533	-0.4717321088005307	-0.20008313713594458	1.5109567483869422	-0.427501899593147	-0.24624286442248616	1.5428994134835694	-0.35601418755982606	-0.23420653638773745	1.8946572581938534	-0.594098805817161	-0.2491156052048618	1.7273815951425884	-0.5988478888355334	-0.2792321405026758	1.6134283823531086	-0.5120813816820228	-0.2629684281849085	1.5633992585984196	-0.5803906838643502	-0.26578347987539347	1.572712285545655	-0.5871123156912827	-0.2898532003799791	1.604915759797605	-0.48179009494798103	-0.23159613939191998	2.062493489504615	-0.5627950813207777	-0.1898484983107259	2.119610299648091	-0.6394944595470543	-0.23301845891599893	2.063586518800773	-0.4814760406052449	-0.19691935032747782	2.0102431910779317	-0.4316960385838587	-1.2225109179293694	2.0202989889279577	0.8762914963460693	-0.22346876893052647	2.063201750052648	-0.6452367277190041	-0.21979262581414552	1.9832459504784579	-0.7004776210632574	-0.20285128462524962	2.0547677538577256	-0.769740171209971
34	1.1333333333333333	-0.24338550840339446	1.8848388266704055	-0.5403209873333549	-0.24674195164288854	1.8811632097604305	-0.4882497282225213	-0.2300048170508695	1.7156517922209251	-0.49079913599608227	-0.23435862266669755	1.5511789674518754	-0.3845031589363034	-0.19474562119557604	1.5102440253665839	-0.4750329634086954	-0.2029796712581179	1.5098474077119184	-0.42908207357942624	-0.24552423630397677	1.5390961013340474	-0.3561009758226504	-0.24111368192444485	1.8874053789601912	-0.5980647743011431	-0.25656166474100606	1.7226176108296707	-0.5864370266167028	-0.2889337242692233	1.6091198467129233	-0.5020901639398739	-0.2639482339820747	1.5657252033732754	-0.5807157829221533	-0.26578347987539347	1.572712285545655	-0.5871123156912827	-0.2898532003799791	1.604915759797605	-0.48179009494798103	-0.2351293881161182	2.048229741386436	-0.5611324037628602	-0.20091958680957114	2.103600721959451	-0.6270352319362971	-0.24336102929982412	2.0459330142056733	-0.47596240949616603	-0.2107773239553108	1.9991632847288952	-0.40803563872770865	-1.5831891122020663	1.9915074499029928	1.3304763364885326	-0.23305020872829627	2.050392633773156	-0.6371270537505963	-0.23048259966249968	1.9739118560159772	-0.6963638611570706	-0.2092923743315626	2.036409058685518	-0.7882423883383985
35	1.1666666666666667	-0.2561293985112626	1.8709904678119489	-0.5334834810187281	-0.26126807074519964	1.8679778778048386	-0.479599115070197	-0.22637422425258716	1.711114646564115	-0.5030997629668567	-0.23567145193564734	1.5524919284331076	-0.3875349824988507	-0.19700138042876775	1.5141376640288244	-0.4731411233773268	-0.20372875387846895	1.5133038291203473	-0.42866511256217954	-0.24598017396521943	1.541299260056298	-0.35594687439878514	-0.2533779514695206	1.8736409096675433	-0.5883450955759965	-0.2556285634813464	1.7160490072403143	-0.5951896753119716	-0.2887158483770033	1.606999701901215	-0.5019568584540725	-0.26492803977924084	1.5680511481481312	-0.5810408819799564	-0.26578347987539347	1.572712285545655	-0.5871123156912827	-0.2898532003799791	1.604915759797605	-0.48179009494798103	-0.24060105250031677	2.0336733176723656	-0.5581037145200317	-0.20813643941301557	2.091087229681959	-0.6289911930480956	-0.24871446252496535	2.0320715316911744	-0.472625399071844	-0.2246352975831438	1.9880833783798586	-0.38437523887155867	-1.9438673064747631	1.9627159108780279	1.7846611766309957	-0.23663913419871815	2.0376768996691914	-0.6368011802832881	-0.24321534086223995	1.9586252536524145	-0.6868190745728501	-0.21940426243215358	2.0135458863640663	-0.8075070281337408
36	1.2	-0.260439386171372	1.8715097131897482	-0.5377951327211816	-0.2645964864745808	1.8682601086001123	-0.4808663015682909	-0.23348690119681764	1.7125846075505344	-0.4913194827157925	-0.2357789889800576	1.5529588062218094	-0.38761490812503185	-0.19512241629570423	1.5144428149447247	-0.47532353660252236	-0.2015055605490844	1.5122364872456395	-0.43084640038146527	-0.24572789814129728	1.5401011873106714	-0.356224302608952	-0.2566986374510465	1.8740027358193228	-0.5894047814217951	-0.2571636628783569	1.7142795891815752	-0.5978529029112005	-0.28849797248478326	1.6048795570895067	-0.501823552968271	-0.26590784557640706	1.570377092922987	-0.5813659810377595	-0.26578347987539347	1.572712285545655	-0.5871123156912827	-0.2898532003799791	1.604915759797605	-0.48179009494798103	-0.25013893704211776	2.028739288140245	-0.5521155582749542	-0.20933655482103264	2.0850908520368625	-0.6315219062601332	-0.25340785736542776	2.024546094138703	-0.4762991267923346	-2.0409015946915323	1.9061322172989779	1.707812626947969	-2.30454550074746	1.933924371853063	2.2388460167734587	-0.2399079456062383	2.0348836905066885	-0.6371912930650212	-0.250553275315453	1.9580821926254433	-0.6829008858184434	-0.22261576509496936	1.9968256554295092	-0.8256331668807911
37	1.2333333333333334	-0.26358553244062227	1.872610440986504	-0.5392383869105216	-0.2675746045501561	1.8696490311577545	-0.4821069079871916	-0.23807037868330355	1.7158311553694723	-0.48671210547640864	-0.23767703666838222	1.557381209799398	-0.39020305879557077	-0.19719808766476496	1.5153188986335588	-0.47281740628278146	-0.20215515595949562	1.5156114652102228	-0.43005248374533434	-0.2494775805357193	1.5480553500328822	-0.3620762110865549	-0.2576798405757469	1.8739165021253767	-0.5925780716598156	-0.26009286751792465	1.7241636951031725	-0.5958274605315421	-0.28828009659256326	1.6027594122777984	-0.5016902474824695	-0.26688765137357323	1.5727030376978428	-0.5816910800955626	-0.26578347987539347	1.572712285545655	-0.5871123156912827	-0.2898532003799791	1.604915759797605	-0.48179009494798103	-0.25395857687474827	2.0325266397184234	-0.5563293956692583	-0.2144536489786267	2.082663439943107	-0.6296181187312824	-0.26571541599627546	2.029336331051225	-0.4664367401593138	-0.259268071611328	1.9717190418902408	-0.3593682072425291	-0.22527026698328512	1.9735795955549627	-0.25161470540257014	-0.241880566617109	2.036836246338823	-0.6443207935363486	-0.25046423903451154	1.9610406303012993	-0.6833678319167096	-0.22069003069637075	1.9823063143738233	-0.8279396413620639
38	1.2666666666666666	-0.26443266730631254	1.879055860115344	-0.5433353958383366	-0.269633075266386	1.87645634626033	-0.48960171027226856	-0.2498880502647574	1.7249198518295223	-0.4748578305226966	-0.24078326746217685	1.561899749960881	-0.40152868018656285	-0.19596169370358527	1.5173617381749531	-0.4697253593392621	-0.20412182427086273	1.518807636289175	-0.42782839162229674	-0.25276030188314697	1.55117026428673	-0.3822090634654253	-0.25852456219657644	1.8805127714109517	-0.596480480143474	-0.2652334508430762	1.7262071112872805	-0.5948199405007967	-0.28889205896231307	1.6041314574812335	-0.5018862213658781	-0.2678674571707394	1.5750289824726984	-0.5820161791533656	-0.26578347987539347	1.572712285545655	-0.5871123156912827	-0.2898532003799791	1.604915759797605	-0.48179009494798103	-0.2577641671003899	2.0339852932705296	-0.5604373071775252	-0.22078345654677148	2.083950925291505	-0.6235017886650526	-0.2678099776849734	2.0296566541964927	-0.4726577973693079	-0.25910060622112724	1.9695783047919266	-0.3668874364243286	-0.2399766884418467	1.9449599638910393	-0.2363583958501552	-0.24790928279845026	2.0366161520047967	-0.645484651198104	-0.2527471390974423	1.9613764882123312	-0.6810307127229243	-0.2167240958215095	1.9631718307163002	-0.8306019125707235
